<?xml version="1.0" encoding="utf-8"?>
<!-- Generator: Adobe Illustrator 15.0.2, SVG Export Plug-In . SVG Version: 6.00 Build 0)  -->
<!DOCTYPE svg PUBLIC "-//W3C//DTD SVG 1.1//EN" "http://www.w3.org/Graphics/SVG/1.1/DTD/svg11.dtd">
<svg version="1.1" id="Calque_1" xmlns="http://www.w3.org/2000/svg" xmlns:xlink="http://www.w3.org/1999/xlink" x="0px" y="0px"
	 width="12.852px" height="12.852px" viewBox="0 0 12.852 12.852" enable-background="new 0 0 12.852 12.852" xml:space="preserve">
<g id="centre">
	<circle fill="#FFFFFF" cx="6.424" cy="6.425" r="5.075"/>
	<g>
		<path fill="none" d="M0,6.425C0,2.877,2.877,0,6.424,0l0,0c3.55,0,6.427,2.877,6.428,6.425l0,0
			c-0.001,3.549-2.878,6.427-6.428,6.427l0,0C2.877,12.851,0,9.973,0,6.425L0,6.425z M1.428,6.425
			c0.005,2.761,2.236,4.991,4.995,4.997l0,0c2.762-0.006,4.992-2.236,4.999-4.997l0,0c-0.007-2.759-2.237-4.991-4.999-4.998l0,0
			C3.665,1.433,1.433,3.666,1.428,6.425L1.428,6.425z"/>
	</g>
</g>
</svg>
