<?xml version="1.0" encoding="utf-8"?>
<!-- Generator: Adobe Illustrator 15.0.2, SVG Export Plug-In . SVG Version: 6.00 Build 0)  -->
<!DOCTYPE svg PUBLIC "-//W3C//DTD SVG 1.1//EN" "http://www.w3.org/Graphics/SVG/1.1/DTD/svg11.dtd">
<svg version="1.1" id="Calque_1" xmlns="http://www.w3.org/2000/svg" xmlns:xlink="http://www.w3.org/1999/xlink" x="0px" y="0px"
	 width="64px" height="63.996px" viewBox="0 0 64 63.996" enable-background="new 0 0 64 63.996" xml:space="preserve">
<g id="Centre_2">
	<path fill="none" d="M0,31.994C0,14.328,14.328,0,31.992,0l0,0C49.667,0,63.995,14.328,64,31.994l0,0
		c-0.005,17.674-14.333,32.002-32.008,32.002l0,0C14.328,63.996,0,49.667,0,31.994L0,31.994z M7.11,31.994
		c0.024,13.744,11.143,24.861,24.882,24.891l0,0c13.75-0.029,24.863-11.146,24.896-24.891l0,0
		C56.855,18.257,45.742,7.13,31.992,7.101l0,0C18.253,7.13,7.135,18.257,7.11,31.994L7.11,31.994z"/>
	<path fill="#FFFFFF" d="M60.15,31.992c0,15.559-12.596,28.16-28.153,28.16C16.45,60.152,3.85,47.55,3.85,31.992
		c0-15.537,12.601-28.148,28.147-28.148C47.557,3.844,60.15,16.455,60.15,31.992z"/>
</g>
</svg>
