<?xml version="1.0" encoding="utf-8"?>
<!-- Generator: Adobe Illustrator 13.0.0, SVG Export Plug-In . SVG Version: 6.00 Build 14948)  -->
<!DOCTYPE svg PUBLIC "-//W3C//DTD SVG 1.1//EN" "http://www.w3.org/Graphics/SVG/1.1/DTD/svg11.dtd">
<svg version="1.1" id="Calque_1" xmlns="http://www.w3.org/2000/svg" xmlns:xlink="http://www.w3.org/1999/xlink" x="0px" y="0px"
	 width="228px" height="228px" viewBox="-0.301 -0.207 228 228" enable-background="new -0.301 -0.207 228 228"
	 xml:space="preserve">
<g id="cadre">
	<g>
		<path fill="#FFFFFF" d="M114.313,0.722c62.62,0,113.385,50.764,113.385,113.386c0,62.621-50.765,113.386-113.385,113.386
			c-62.622,0-113.387-50.765-113.387-113.386C0.926,51.486,51.691,0.722,114.313,0.722 M114.313,6.722
			c-28.684,0-55.651,11.17-75.934,31.452C18.096,58.457,6.926,85.423,6.926,114.107c0,28.684,11.17,55.65,31.453,75.933
			c20.282,20.283,47.25,31.453,75.934,31.453c28.684,0,55.649-11.17,75.933-31.452c20.282-20.283,31.452-47.25,31.452-75.934
			s-11.17-55.651-31.452-75.934C169.963,17.892,142.996,6.722,114.313,6.722L114.313,6.722z"/>
	</g>
</g>
</svg>
