<?xml version="1.0" encoding="utf-8"?>
<!-- Generator: Adobe Illustrator 15.0.2, SVG Export Plug-In . SVG Version: 6.00 Build 0)  -->
<!DOCTYPE svg PUBLIC "-//W3C//DTD SVG 1.1//EN" "http://www.w3.org/Graphics/SVG/1.1/DTD/svg11.dtd">
<svg version="1.1" id="Calque_1" xmlns="http://www.w3.org/2000/svg" xmlns:xlink="http://www.w3.org/1999/xlink" x="0px" y="0px"
	 width="36px" height="72px" viewBox="0 0 36 72" enable-background="new 0 0 36 72" xml:space="preserve">
<g>
	<rect fill="#607D8B" fill-opacity="0" width="36" height="72"/>
	<rect x="13.502" y="15" fill="#2D2D2D" width="3" height="3"/>
	<rect x="16.503" y="15" fill="#2D2D2D" width="3" height="3"/>
	<rect x="19.503" y="15" fill="#2D2D2D" width="3" height="3"/>
	<rect x="25.502" y="15" fill="#2D2D2D" width="3" height="3"/>
	<rect x="28.502" y="15" fill="#2D2D2D" width="3" height="3"/>
	<rect x="31.502" y="24" fill="#2D2D2D" width="3" height="3"/>
	<rect x="1.502" y="24" fill="#2D2D2D" width="3" height="3"/>
	<rect x="4.502" y="15" fill="#2D2D2D" width="3" height="3"/>
	<rect x="7.502" y="15" fill="#2D2D2D" width="3" height="3"/>
	<rect x="13.502" y="12" fill="#2D2D2D" width="3" height="3"/>
	<rect x="16.503" y="12" fill="#2D2D2D" width="3" height="3"/>
	<rect x="19.503" y="12" fill="#2D2D2D" width="3" height="3"/>
	<rect x="22.503" y="12" fill="#2D2D2D" width="3" height="3"/>
	<rect x="25.502" y="12" fill="#2D2D2D" width="3" height="3"/>
	<rect x="31.502" y="21" fill="#2D2D2D" width="3" height="3"/>
	<rect x="1.502" y="21" fill="#2D2D2D" width="3" height="3"/>
	<rect x="7.502" y="12" fill="#2D2D2D" width="3" height="3"/>
	<rect x="10.502" y="12" fill="#2D2D2D" width="3" height="3"/>
	<rect x="22.503" y="9" fill="#2D2D2D" width="3" height="3"/>
	<rect x="31.502" y="18" fill="#2D2D2D" width="3" height="3"/>
	<rect x="1.502" y="18" fill="#2D2D2D" width="3" height="3"/>
	<rect x="10.502" y="9" fill="#2D2D2D" width="3" height="3"/>
	<rect x="25.502" y="6" fill="#2D2D2D" width="3" height="3"/>
	<rect x="7.502" y="6" fill="#2D2D2D" width="3" height="3"/>
	<rect x="13.502" y="27" fill="#2D2D2D" width="3" height="3"/>
	<rect x="19.503" y="27" fill="#2D2D2D" width="3" height="3"/>
	<rect x="22.503" y="27" fill="#2D2D2D" width="3" height="3"/>
	<rect x="10.502" y="27" fill="#2D2D2D" width="3" height="3"/>
	<rect x="25.502" y="24" fill="#2D2D2D" width="3" height="3"/>
	<rect x="7.502" y="24" fill="#2D2D2D" width="3" height="3"/>
	<rect x="13.502" y="21" fill="#2D2D2D" width="3" height="3"/>
	<rect x="16.503" y="21" fill="#2D2D2D" width="3" height="3"/>
	<rect x="19.503" y="21" fill="#2D2D2D" width="3" height="3"/>
	<rect x="22.503" y="21" fill="#2D2D2D" width="3" height="3"/>
	<rect x="25.502" y="21" fill="#2D2D2D" width="3" height="3"/>
	<rect x="7.502" y="21" fill="#2D2D2D" width="3" height="3"/>
	<rect x="10.502" y="21" fill="#2D2D2D" width="3" height="3"/>
	<rect x="13.502" y="18" fill="#2D2D2D" width="3" height="3"/>
	<rect x="16.503" y="18" fill="#2D2D2D" width="3" height="3"/>
	<rect x="19.503" y="18" fill="#2D2D2D" width="3" height="3"/>
	<rect x="22.503" y="18" fill="#2D2D2D" width="3" height="3"/>
	<rect x="25.502" y="18" fill="#2D2D2D" width="3" height="3"/>
	<rect x="28.502" y="18" fill="#2D2D2D" width="3" height="3"/>
	<rect x="4.502" y="18" fill="#2D2D2D" width="3" height="3"/>
	<rect x="7.502" y="18" fill="#2D2D2D" width="3" height="3"/>
	<rect x="10.502" y="18" fill="#2D2D2D" width="3" height="3"/>
	<rect x="13.502" y="51" fill="#2D2D2D" width="3" height="3"/>
	<rect x="16.502" y="51" fill="#2D2D2D" width="3" height="3"/>
	<rect x="19.502" y="51" fill="#2D2D2D" width="3" height="3"/>
	<rect x="25.501" y="51" fill="#2D2D2D" width="3" height="3"/>
	<rect x="28.501" y="51" fill="#2D2D2D" width="3" height="3"/>
	<rect x="31.501" y="51" fill="#2D2D2D" width="3" height="3"/>
	<rect x="1.501" y="51" fill="#2D2D2D" width="3" height="3"/>
	<rect x="4.502" y="51" fill="#2D2D2D" width="3" height="3"/>
	<rect x="7.502" y="51" fill="#2D2D2D" width="3" height="3"/>
	<rect x="13.502" y="48" fill="#2D2D2D" width="3" height="3"/>
	<rect x="16.502" y="48" fill="#2D2D2D" width="3" height="3"/>
	<rect x="19.502" y="48" fill="#2D2D2D" width="3" height="3"/>
	<rect x="22.502" y="48" fill="#2D2D2D" width="3" height="3"/>
	<rect x="25.501" y="48" fill="#2D2D2D" width="3" height="3"/>
	<rect x="31.501" y="48" fill="#2D2D2D" width="3" height="3"/>
	<rect x="1.501" y="48" fill="#2D2D2D" width="3" height="3"/>
	<rect x="7.502" y="48" fill="#2D2D2D" width="3" height="3"/>
	<rect x="10.502" y="48" fill="#2D2D2D" width="3" height="3"/>
	<rect x="22.502" y="45" fill="#2D2D2D" width="3" height="3"/>
	<rect x="31.501" y="45" fill="#2D2D2D" width="3" height="3"/>
	<rect x="1.501" y="45" fill="#2D2D2D" width="3" height="3"/>
	<rect x="10.502" y="45" fill="#2D2D2D" width="3" height="3"/>
	<rect x="25.501" y="42" fill="#2D2D2D" width="3" height="3"/>
	<rect x="7.502" y="42" fill="#2D2D2D" width="3" height="3"/>
	<rect x="28.501" y="63" fill="#2D2D2D" width="3" height="3"/>
	<rect x="4.501" y="63" fill="#2D2D2D" width="3" height="3"/>
	<rect x="25.501" y="60" fill="#2D2D2D" width="3" height="3"/>
	<rect x="7.502" y="60" fill="#2D2D2D" width="3" height="3"/>
	<rect x="13.502" y="57" fill="#2D2D2D" width="3" height="3"/>
	<rect x="16.502" y="57" fill="#2D2D2D" width="3" height="3"/>
	<rect x="19.502" y="57" fill="#2D2D2D" width="3" height="3"/>
	<rect x="22.502" y="57" fill="#2D2D2D" width="3" height="3"/>
	<rect x="25.501" y="57" fill="#2D2D2D" width="3" height="3"/>
	<rect x="28.501" y="57" fill="#2D2D2D" width="3" height="3"/>
	<rect x="4.502" y="57" fill="#2D2D2D" width="3" height="3"/>
	<rect x="7.502" y="57" fill="#2D2D2D" width="3" height="3"/>
	<rect x="10.502" y="57" fill="#2D2D2D" width="3" height="3"/>
	<rect x="13.502" y="54" fill="#2D2D2D" width="3" height="3"/>
	<rect x="16.502" y="54" fill="#2D2D2D" width="3" height="3"/>
	<rect x="19.502" y="54" fill="#2D2D2D" width="3" height="3"/>
	<rect x="22.502" y="54" fill="#2D2D2D" width="3" height="3"/>
	<rect x="25.501" y="54" fill="#2D2D2D" width="3" height="3"/>
	<rect x="28.501" y="54" fill="#2D2D2D" width="3" height="3"/>
	<rect x="31.501" y="54" fill="#2D2D2D" width="3" height="3"/>
	<rect x="1.501" y="54" fill="#2D2D2D" width="3" height="3"/>
	<rect x="4.502" y="54" fill="#2D2D2D" width="3" height="3"/>
	<rect x="7.502" y="54" fill="#2D2D2D" width="3" height="3"/>
	<rect x="10.502" y="54" fill="#2D2D2D" width="3" height="3"/>
</g>
</svg>
